<svg xmlns="http://www.w3.org/2000/svg" viewBox="0 0 24 24" fill="none" stroke="currentColor" stroke-width="1.9" stroke-linecap="round" stroke-linejoin="round">
  <circle cx="12" cy="12" r="3.25"/>
  <path d="M19.4 15a1.7 1.7 0 0 0 .34 1.87l.06.06a2 2 0 1 1-2.83 2.83l-.06-.06A1.7 1.7 0 0 0 15 19.4a1.7 1.7 0 0 0-1 .66 1.7 1.7 0 0 0-.34 1.02V21.2a2 2 0 1 1-4 0v-.1A1.7 1.7 0 0 0 9 19.4a1.7 1.7 0 0 0-1-.34 1.7 1.7 0 0 0-1.02.34l-.06.06a2 2 0 1 1-2.83-2.83l.06-.06A1.7 1.7 0 0 0 4.6 15a1.7 1.7 0 0 0-.66-1 1.7 1.7 0 0 0-1.02-.34H2.8a2 2 0 1 1 0-4h.1A1.7 1.7 0 0 0 4.6 9a1.7 1.7 0 0 0-.34-1.02l-.06-.06a2 2 0 1 1 2.83-2.83l.06.06A1.7 1.7 0 0 0 9 4.6a1.7 1.7 0 0 0 1-.66 1.7 1.7 0 0 0 .34-1.02V2.8a2 2 0 1 1 4 0v.1A1.7 1.7 0 0 0 15 4.6a1.7 1.7 0 0 0 1 .34 1.7 1.7 0 0 0 1.02-.34l.06-.06a2 2 0 1 1 2.83 2.83l-.06.06A1.7 1.7 0 0 0 19.4 9c0 .37.12.72.34 1.02.24.31.6.53 1 .66h.1a2 2 0 1 1 0 4h-.1A1.7 1.7 0 0 0 19.4 15z"/>
</svg>
